<svg xmlns="http://www.w3.org/2000/svg" xmlns:xlink="http://www.w3.org/1999/xlink" width="500" zoomAndPan="magnify" viewBox="0 0 375 374.999991" height="500" preserveAspectRatio="xMidYMid meet" version="1.0"><defs><g/><clipPath id="0f9218f6f4"><path d="M 0.960938 0 L 349.921875 0 L 349.921875 375 L 0.960938 375 Z M 0.960938 0 " clip-rule="nonzero"/></clipPath><clipPath id="6cc6b2f00f"><rect x="0" width="350" y="0" height="375"/></clipPath><clipPath id="146f8aa6e1"><path d="M 31.847656 90.796875 L 218.828125 90.796875 L 218.828125 339.105469 L 31.847656 339.105469 Z M 31.847656 90.796875 " clip-rule="nonzero"/></clipPath><clipPath id="b39e3d08be"><path d="M 47 0.796875 L 141 0.796875 L 141 132 L 47 132 Z M 47 0.796875 " clip-rule="nonzero"/></clipPath><clipPath id="17bdf72555"><path d="M 0.941406 35 L 187.828125 35 L 187.828125 235 L 0.941406 235 Z M 0.941406 35 " clip-rule="nonzero"/></clipPath><clipPath id="dbd583d22b"><path d="M 76 209 L 99 209 L 99 249.105469 L 76 249.105469 Z M 76 209 " clip-rule="nonzero"/></clipPath><clipPath id="3078c1ac53"><rect x="0" width="188" y="0" height="250"/></clipPath><clipPath id="48eeafc2a1"><rect x="0" width="350" y="0" height="375"/></clipPath></defs><g transform="matrix(1, 0, 0, 1, 12, 0)"><g clip-path="url(#48eeafc2a1)"><g clip-path="url(#0f9218f6f4)"><g><g clip-path="url(#6cc6b2f00f)"><g fill="#000000" fill-opacity="1"><g transform="translate(1.583663, 363.201442)"><g><path d="M 81.234375 -56.359375 C 81.234375 -48.578125 82.671875 -41.210938 85.546875 -34.265625 C 88.429688 -27.328125 92.410156 -21.316406 97.484375 -16.234375 C 102.566406 -11.160156 108.492188 -7.1875 115.265625 -4.3125 C 122.035156 -1.4375 129.3125 0 137.09375 0 L 12.6875 0 C 20.132812 -1.007812 27.328125 -3.375 34.265625 -7.09375 C 41.210938 -10.820312 47.734375 -15.476562 53.828125 -21.0625 C 59.921875 -26.65625 65.332031 -32.835938 70.0625 -39.609375 C 74.800781 -46.378906 78.523438 -53.316406 81.234375 -60.421875 Z M 178.734375 0 C 185.835938 0 191.925781 -2.957031 197 -8.875 C 202.082031 -14.800781 204.625 -21.488281 204.625 -28.9375 C 204.625 -30.289062 204.625 -31.644531 204.625 -33 C 204.625 -34.351562 204.285156 -35.707031 203.609375 -37.0625 L 188.890625 -79.71875 L 187.875 -82.765625 L 151.8125 -186.859375 C 149.445312 -192.609375 145.21875 -195.484375 139.125 -195.484375 C 133.363281 -195.484375 129.300781 -192.609375 126.9375 -186.859375 L 187.875 -355.421875 L 244.234375 -193.453125 C 246.597656 -186.679688 249.300781 -178.640625 252.34375 -169.328125 C 255.394531 -160.023438 258.101562 -151.988281 260.46875 -145.21875 L 302.109375 -26.40625 C 304.484375 -19.632812 308.628906 -13.539062 314.546875 -8.125 C 320.472656 -2.707031 327.328125 0 335.109375 0 Z M 178.734375 0 "/></g></g></g></g></g></g><g clip-path="url(#146f8aa6e1)"><g transform="matrix(1, 0, 0, 1, 31, 90)"><g clip-path="url(#3078c1ac53)"><g clip-path="url(#b39e3d08be)"><path fill="#0444fc" d="M 78.074219 74.617188 C 81.480469 38.421875 135.785156 38.464844 140.308594 0.8125 C 140.308594 0.8125 146.933594 35.203125 118.472656 53.667969 C 105.679688 61.96875 92.792969 75.019531 86.574219 91.269531 C 72.59375 127.785156 47.796875 131.085938 47.796875 131.085938 C 59.65625 124.636719 74.78125 109.605469 78.074219 74.617188 " fill-opacity="1" fill-rule="nonzero"/></g><g clip-path="url(#17bdf72555)"><path fill="#0444fc" d="M 51.394531 138.316406 C 51.394531 138.316406 82.417969 128.074219 99.871094 96.152344 C 119.308594 60.597656 166.210938 74.105469 184.347656 35.925781 C 184.347656 35.925781 185.214844 39.558594 186.078125 45.683594 C 187.53125 55.96875 184.746094 66.53125 177.984375 74.414062 C 175.71875 77.058594 172.953125 79.507812 169.578125 81.492188 C 169.578125 81.492188 179.753906 78.40625 187.796875 70.804688 C 187.789062 74.074219 187.683594 77.480469 187.457031 80.996094 C 186.996094 88.089844 184.847656 95.015625 180.96875 100.96875 C 178.28125 105.085938 174.601562 109.074219 169.578125 112.03125 C 169.578125 112.03125 176.886719 109.8125 184.011719 104.511719 C 182.46875 111.039062 180.359375 117.625 177.535156 124.058594 C 174.570312 130.804688 170.167969 136.875 164.398438 141.460938 C 160.53125 144.535156 155.925781 147.179688 150.511719 148.8125 C 150.511719 148.8125 156.492188 148.480469 164.027344 146.179688 C 149.070312 164.339844 125.21875 178.65625 87.660156 182.832031 C 107.550781 202.230469 102.882812 234.191406 102.882812 234.191406 C 97.132812 196.136719 32.15625 202.542969 24.355469 166.742188 C 16.519531 130.78125 0.972656 140.640625 0.972656 140.640625 C 10.066406 130.558594 16.777344 113.921875 51.394531 138.316406 " fill-opacity="1" fill-rule="nonzero"/></g><g clip-path="url(#dbd583d22b)"><path fill="#0444fc" d="M 76.910156 209.058594 C 76.910156 209.058594 101.648438 216.320312 97.617188 249.394531 L 86.320312 238.101562 C 86.320312 238.101562 90.085938 220.082031 76.910156 209.058594 " fill-opacity="1" fill-rule="nonzero"/></g></g></g></g></g></g></svg>